<?xml version="1.0" standalone="no"?>
<!DOCTYPE svg PUBLIC "-//W3C//DTD SVG 20010904//EN"
 "http://www.w3.org/TR/2001/REC-SVG-20010904/DTD/svg10.dtd">
<svg version="1.0" xmlns="http://www.w3.org/2000/svg"
 width="1080.000000pt" height="1080.000000pt" viewBox="0 0 1080.000000 1080.000000"
 preserveAspectRatio="xMidYMid meet">
<metadata>
Created by potrace 1.14, written by Peter Selinger 2001-2017
</metadata>
<g transform="translate(0.000000,1080.000000) scale(0.100000,-0.100000)"
fill="#000000" stroke="none">
<path d="M1670 7796 c-14 -38 -32 -108 -28 -112 2 -1 46 -8 98 -14 145 -17
263 -47 313 -80 116 -78 134 -230 62 -521 -36 -145 -949 -3290 -985 -3394 -78
-224 -188 -397 -294 -459 -91 -53 -274 -96 -413 -96 l-41 0 -21 -62 c-12 -34
-21 -66 -21 -70 0 -4 522 -8 1160 -8 l1161 0 19 46 c41 95 44 90 -62 98 -223
17 -315 44 -390 113 -68 65 -82 109 -75 236 3 56 15 140 27 187 11 47 125 443
252 881 l232 796 120 -1 119 -1 337 -1160 c185 -639 339 -1169 343 -1178 6
-16 59 -17 757 -17 l750 0 0 69 0 69 -77 7 c-156 15 -286 61 -355 127 -69 66
-149 230 -232 479 -30 90 -154 499 -276 909 -121 410 -223 752 -225 761 -5 13
29 28 182 78 418 137 628 259 813 474 139 161 225 321 277 514 24 89 27 115
27 278 0 157 -2 191 -23 265 -74 275 -257 502 -507 628 -129 65 -346 124 -561
152 -176 23 -486 29 -1451 30 l-1002 0 -10 -24z m1982 -285 c108 -28 187 -71
267 -146 79 -75 128 -159 163 -280 20 -71 23 -101 22 -265 -1 -325 -58 -534
-210 -762 -170 -256 -423 -426 -721 -485 -88 -17 -433 -26 -448 -12 -4 5 534
1852 570 1957 8 21 266 16 357 -7z"/>
<path d="M6517 7813 c-3 -5 -10 -28 -17 -53 -6 -25 -13 -52 -16 -61 -4 -14 7
-18 68 -24 212 -19 306 -47 378 -111 111 -101 120 -179 51 -454 -35 -136 -755
-2623 -947 -3267 -84 -284 -170 -466 -263 -562 -88 -90 -235 -142 -444 -157
l-97 -7 -19 -61 c-10 -34 -15 -64 -12 -69 4 -4 547 -6 1206 -5 l1199 3 18 60
c10 33 18 63 18 66 0 3 -71 10 -158 17 -180 13 -269 36 -334 85 -91 70 -112
130 -106 302 l5 120 188 650 c103 358 220 764 260 903 40 139 75 256 79 259
10 10 516 -16 636 -32 155 -20 221 -47 301 -122 59 -55 102 -121 130 -199 36
-100 37 -366 2 -511 -5 -22 -3 -23 65 -23 39 0 73 4 76 8 3 5 125 422 271 928
146 505 270 931 275 947 l9 27 -73 0 -73 0 -19 -42 c-30 -68 -118 -202 -183
-281 -165 -200 -410 -342 -666 -386 -75 -13 -289 -28 -509 -36 l-168 -6 4 24
c3 13 121 423 264 911 l259 888 465 -5 c356 -4 491 -8 576 -21 359 -52 591
-203 691 -449 36 -89 71 -253 85 -399 l12 -128 68 0 c37 0 68 2 68 3 0 2 72
287 160 633 88 346 160 632 160 637 0 9 -3937 9 -3943 0z"/>
</g>
</svg>
